<?xml version="1.0" encoding="UTF-8" standalone="no"?>
<!-- Created with Inkscape (http://www.inkscape.org/) -->

<svg
   xmlns:dc="http://purl.org/dc/elements/1.1/"
   xmlns:cc="http://creativecommons.org/ns#"
   xmlns:rdf="http://www.w3.org/1999/02/22-rdf-syntax-ns#"
   xmlns:svg="http://www.w3.org/2000/svg"
   xmlns="http://www.w3.org/2000/svg"
   xmlns:sodipodi="http://sodipodi.sourceforge.net/DTD/sodipodi-0.dtd"
   xmlns:inkscape="http://www.inkscape.org/namespaces/inkscape"
   width="60mm"
   height="50.404999mm"
   viewBox="0 0 60 50.404999"
   version="1.1"
   id="svg8"
   inkscape:version="0.92.4 (5da689c313, 2019-01-14)"
   sodipodi:docname="personalflix-logo-branco.svg">
  <defs
     id="defs2" />
  <sodipodi:namedview
     id="base"
     pagecolor="#ffffff"
     bordercolor="#666666"
     borderopacity="1.0"
     inkscape:pageopacity="0.0"
     inkscape:pageshadow="2"
     inkscape:zoom="2.8135437"
     inkscape:cx="113.38583"
     inkscape:cy="95.253541"
     inkscape:document-units="mm"
     inkscape:current-layer="layer1"
     showgrid="false"
     inkscape:window-width="1366"
     inkscape:window-height="705"
     inkscape:window-x="-8"
     inkscape:window-y="-8"
     inkscape:window-maximized="1" />
  <metadata
     id="metadata5">
    <rdf:RDF>
      <cc:Work
         rdf:about="">
        <dc:format>image/svg+xml</dc:format>
        <dc:type
           rdf:resource="http://purl.org/dc/dcmitype/StillImage" />
        <dc:title />
      </cc:Work>
    </rdf:RDF>
  </metadata>
  <g
     inkscape:label="Camada 1"
     inkscape:groupmode="layer"
     id="layer1"
     transform="translate(0,-246.595)">
    <g
       id="g889"
       style="fill:#ffffff"
       transform="matrix(0.97415087,0,0,0.97415087,-57.953154,150.7051)">
      <g
         id="g859"
         style="fill:#ffffff" />
    </g>
    <g
       id="g865"
       transform="matrix(0.97415087,0,0,0.97415087,-57.825321,150.7051)"
       style="fill:#ffffff" />
    <g
       style="fill:#ffffff"
       transform="matrix(0.97415087,0,0,0.97415087,-57.825321,190.2361)"
       id="g880">
      <path
         inkscape:connector-curvature="0"
         id="rect878"
         style="opacity:0.97000002;fill:#ffffff;fill-opacity:1;stroke:none;stroke-width:0.26458332"
         d="m 106.97265,101.91308 h 5.81077 c 0.43653,0 0.78796,0.35143 0.78796,0.78796 v 2.62915 c 0,0.43653 -0.35143,0.78796 -0.78796,0.78796 h -5.81077 c -0.43653,0 -0.78796,-0.35143 -0.78796,-0.78796 v -2.62915 c 0,-0.43653 0.35143,-0.78796 0.78796,-0.78796 z m -13.148177,0 h 5.810772 c 0.436525,0 0.787955,0.35143 0.787955,0.78796 v 2.62915 c 0,0.43653 -0.35143,0.78796 -0.787955,0.78796 h -5.810772 c -0.436529,0 -0.787959,-0.35143 -0.787959,-0.78796 v -2.62915 c 0,-0.43653 0.35143,-0.78796 0.787959,-0.78796 z m -13.148178,0 h 5.810772 c 0.436529,0 0.787959,0.35143 0.787959,0.78796 v 2.62915 c 0,0.43653 -0.35143,0.78796 -0.787959,0.78796 h -5.810772 c -0.436529,0 -0.787959,-0.35143 -0.787959,-0.78796 v -2.62915 c 0,-0.43653 0.35143,-0.78796 0.787959,-0.78796 z m -13.148178,0 h 5.810772 c 0.436529,0 0.787959,0.35143 0.787959,0.78796 v 2.62915 c 0,0.43653 -0.35143,0.78796 -0.787959,0.78796 h -5.810772 c -0.436529,0 -0.787959,-0.35143 -0.787959,-0.78796 v -2.62915 c 0,-0.43653 0.35143,-0.78796 0.787959,-0.78796 z M 106.97265,61.333128 h 5.81077 c 0.43653,0 0.78796,0.35143 0.78796,0.78796 v 2.62915 c 0,0.43653 -0.35143,0.78796 -0.78796,0.78796 h -5.81077 c -0.43653,0 -0.78796,-0.35143 -0.78796,-0.78796 v -2.62915 c 0,-0.43653 0.35143,-0.78796 0.78796,-0.78796 z m -13.148177,0 h 5.810772 c 0.436525,0 0.787955,0.35143 0.787955,0.78796 v 2.62915 c 0,0.43653 -0.35143,0.78796 -0.787955,0.78796 h -5.810772 c -0.436529,0 -0.787959,-0.35143 -0.787959,-0.78796 v -2.62915 c 0,-0.43653 0.35143,-0.78796 0.787959,-0.78796 z m -13.148178,0 h 5.810772 c 0.436529,0 0.787959,0.35143 0.787959,0.78796 v 2.62915 c 0,0.43653 -0.35143,0.78796 -0.787959,0.78796 h -5.810772 c -0.436529,0 -0.787959,-0.35143 -0.787959,-0.78796 v -2.62915 c 0,-0.43653 0.35143,-0.78796 0.787959,-0.78796 z m -13.148178,0 h 5.810772 c 0.436529,0 0.787959,0.35143 0.787959,0.78796 v 2.62915 c 0,0.43653 -0.35143,0.78796 -0.787959,0.78796 h -5.810772 c -0.436529,0 -0.787959,-0.35143 -0.787959,-0.78796 v -2.62915 c 0,-0.43653 0.35143,-0.78796 0.787959,-0.78796 z m -8.168399,37.10117 v 3.414262 c 0,4.29254 3.455823,7.74837 7.748362,7.74837 h 46.09538 c 4.29254,0 7.74836,-3.45583 7.74836,-7.74837 V 98.434298 Z M 67.10808,57.85435 c -4.292539,0 -7.748362,3.455818 -7.748362,7.748358 v 3.41427 h 61.592102 v -3.41427 c 0,-4.29254 -3.45582,-7.748358 -7.74836,-7.748358 z" />
    </g>
    <g
       aria-label="P.FLIX"
       style="font-style:normal;font-variant:normal;font-weight:normal;font-stretch:normal;font-size:36.34812927px;line-height:1.25;font-family:Haettenschweiler;-inkscape-font-specification:'Haettenschweiler, Normal';font-variant-ligatures:normal;font-variant-caps:normal;font-variant-numeric:normal;font-feature-settings:normal;text-align:start;letter-spacing:0px;word-spacing:0px;writing-mode:lr-tb;text-anchor:start;opacity:1;fill:#ffffff;fill-opacity:0.97254902;stroke:none;stroke-width:0.90871114"
       id="text884"
       transform="matrix(0.97415087,0,0,0.78583022,-57.953154,174.11441)">
      <path
         inkscape:connector-curvature="0"
         d="m 65.273822,127.65999 v 9.371 h -5.44867 V 111.5802 h 5.874624 q 3.496378,0 5.182448,0.88741 1.703819,0.8874 1.703819,3.62061 v 7.06375 q 0,2.50248 -1.384353,3.54962 -1.384352,1.02939 -5.927868,0.9584 z m 1.863551,-4.98722 v -6.10535 q 0,-1.34886 -1.863551,-1.34886 v 8.80307 q 1.863551,0 1.863551,-1.34886 z"
         style="font-style:normal;font-variant:normal;font-weight:normal;font-stretch:normal;font-size:36.34812927px;font-family:Haettenschweiler;-inkscape-font-specification:'Haettenschweiler, Normal';font-variant-ligatures:normal;font-variant-caps:normal;font-variant-numeric:normal;font-feature-settings:normal;text-align:start;letter-spacing:0px;writing-mode:lr-tb;text-anchor:start;fill:#ffffff;fill-opacity:0.97254902;stroke-width:0.90871114"
         id="path4610" />
      <path
         inkscape:connector-curvature="0"
         d="M 74.423709,137.03099 H 69.8092 v -3.70935 h 4.614509 z"
         style="font-style:normal;font-variant:normal;font-weight:normal;font-stretch:normal;font-size:36.34812927px;font-family:Haettenschweiler;-inkscape-font-specification:'Haettenschweiler, Normal';font-variant-ligatures:normal;font-variant-caps:normal;font-variant-numeric:normal;font-feature-settings:normal;text-align:start;letter-spacing:0px;writing-mode:lr-tb;text-anchor:start;fill:#ffffff;fill-opacity:0.97254902;stroke-width:0.90871114"
         id="path4612" />
      <path
         inkscape:connector-curvature="0"
         d="m 86.013225,114.8636 h -4.88073 v 6.86852 h 4.366035 v 3.08817 h -4.366035 v 12.2107 H 75.54184 V 111.5802 h 10.471385 z"
         style="opacity:0.63000004;fill:#ffffff"
         id="path4614" />
      <path
         inkscape:connector-curvature="0"
         d="M 97.443007,137.03099 H 86.953874 V 111.5802 h 5.590654 v 22.18514 h 4.898479 z"
         style="opacity:0.63000004;fill:#ffffff"
         id="path4616" />
      <path
         inkscape:connector-curvature="0"
         d="M 103.81458,137.03099 H 98.223924 V 111.5802 h 5.590656 z"
         style="opacity:0.63000004;fill:#ffffff"
         id="path4618" />
      <path
         inkscape:connector-curvature="0"
         d="m 120.74628,137.03099 h -5.99886 l -2.55573,-8.18188 -2.396,8.18188 h -5.34218 l 4.40153,-14.46471 -3.26565,-10.98608 h 5.37768 l 1.98779,7.38321 2.21851,-7.38321 h 5.02272 l -3.81585,11.78475 z"
         style="opacity:0.63000004;fill:#ffffff"
         id="path4620" />
    </g>
  </g>
</svg>
